<?xml version="1.0" encoding="UTF-8"?>
<svg version="1.1" xmlns="http://www.w3.org/2000/svg" width="1081" height="1037">
<path d="M0 0 C0 44.88 0 89.76 0 136 C12.10250671 128.4858875 12.10250671 128.4858875 24 120.6875 C25.48287263 119.69891825 26.96596611 118.71066774 28.44921875 117.72265625 C31.59041941 115.62390808 34.72125275 113.51089443 37.84228516 111.38232422 C41.42641023 108.93849306 45.02303906 106.51392998 48.6262207 104.09829712 C50.08026974 103.11843775 51.52986612 102.13193735 52.97485352 101.13876343 C55.02035646 99.73411371 57.08018163 98.35330894 59.14453125 96.9765625 C59.76157425 96.54496323 60.37861725 96.11336395 61.01435852 95.66868591 C62.78051758 94.51025391 62.78051758 94.51025391 66 93 C68.68115234 93.59399414 68.68115234 93.59399414 71 95 C71.65589111 95.38905518 72.31178223 95.77811035 72.98754883 96.17895508 C73.63747803 96.62134521 74.28740723 97.06373535 74.95703125 97.51953125 C75.7243457 98.03708984 76.49166016 98.55464844 77.28222656 99.08789062 C78.1172168 99.65701172 78.95220703 100.22613281 79.8125 100.8125 C81.67752285 102.07029036 83.54347266 103.32670691 85.41015625 104.58203125 C86.44414551 105.2776416 87.47813477 105.97325195 88.54345703 106.68994141 C95.24374758 111.17965578 102.00252966 115.58169011 108.75 120 C110.80543121 121.34618403 112.86078828 122.69248052 114.91590881 124.03913879 C116.15632283 124.85185943 117.39697074 125.66422328 118.63792419 126.47612 C123.44382238 129.62402829 128.2192507 132.8128338 133 136 C133.33 91.12 133.66 46.24 134 0 C137.26424995 1.30569998 139.70536646 2.29976109 142.56640625 4.1015625 C143.21802734 4.51019531 143.86964844 4.91882813 144.54101562 5.33984375 C145.54165039 5.97599609 145.54165039 5.97599609 146.5625 6.625 C147.20251953 7.02589844 147.84253906 7.42679688 148.50195312 7.83984375 C149.84131777 8.68397015 151.17043761 9.54456509 152.48895264 10.4209013 C155.04069486 12.07527476 155.04069486 12.07527476 158.02410889 13.5597887 C166.35733471 18.21575482 166.35733471 18.21575482 168.04820251 22.91014671 C168.37705393 26.4843153 168.32365075 29.87696626 168.13671875 33.46166992 C168.11041377 34.81110227 168.08973983 36.16065426 168.07423401 37.51025391 C168.03056215 40.40569005 167.95057795 43.29698097 167.84265137 46.19072533 C167.67498863 50.77757786 167.60899445 55.36253318 167.55957031 59.95198059 C167.41261157 72.17316618 167.13842459 84.39079362 166.79273891 96.60790664 C166.56581636 104.64091732 166.39739662 112.67049132 166.33724117 120.70663148 C166.30484243 124.51799793 166.23345421 128.31974323 166.06698608 132.12779808 C164.79709839 147.61479485 164.79709839 147.61479485 169.92293549 161.51141739 C174.59007868 165.71371504 179.78241922 168.41382042 185.52159882 170.87364388 C189.23401527 172.56082149 192.48951587 174.80468214 195.828125 177.125 C197.0526239 177.93347274 198.27894256 178.73920243 199.5078125 179.54101562 C200.75521086 180.36067323 202.00260663 181.1803348 203.25 182 C204.61715516 182.89783571 205.9843436 183.79562073 207.3515625 184.69335938 C210.17004829 186.54407843 212.98839611 188.3950073 215.80664062 190.24609375 C221.8745201 194.23136847 227.94416616 198.21395096 234.01373291 202.19665527 C237.33472662 204.37581821 240.65565595 206.55507924 243.9765625 208.734375 C244.63538422 209.16671448 245.29420593 209.59905396 245.97299194 210.04449463 C250.03255063 212.70859356 254.0918011 215.37316142 258.15081787 218.03808594 C260.9004327 219.8433022 263.65016434 221.6483405 266.39990234 223.45336914 C267.66493333 224.28384869 268.92991215 225.1144077 270.19482422 225.94506836 C283.45032836 234.6498208 296.72715349 243.32160036 310 252 C310 216.69 310 181.38 310 145 C314.49409329 146.79763732 318.11463461 148.92246512 322.0625 151.625 C323.38925279 152.52223912 324.71607677 153.41937299 326.04296875 154.31640625 C326.70345215 154.76516113 327.36393555 155.21391602 328.04443359 155.67626953 C330.97412167 157.65938673 333.92543534 159.60907574 336.875 161.5625 C341.87747036 164.87747036 341.87747036 164.87747036 343 166 C343.05623527 167.87623804 343.04008418 169.75466122 342.99671936 171.63124084 C342.97182434 172.85478775 342.94692932 174.07833466 342.92127991 175.33895874 C342.89766986 176.3371142 342.89766986 176.3371142 342.87358284 177.35543442 C342.78810397 180.99267949 342.72018745 184.63026769 342.65016174 188.26783752 C342.63479217 189.04547585 342.61942259 189.82311417 342.60358727 190.62431729 C342.39493638 201.46302106 342.31619167 212.30330351 342.22979069 223.14354801 C342.15566381 231.96982791 342.03729048 240.79154059 341.81713867 249.61547852 C341.62517428 257.31702297 341.51959827 265.01436647 341.51351351 272.71837705 C341.5072509 276.79326735 341.45974776 280.85760971 341.30784798 284.92988777 C340.20334093 301.85270406 340.20334093 301.85270406 346.34703255 316.90954018 C352.01442654 321.93650472 358.30216146 325.41845971 365.13525772 328.61419296 C369.05383948 330.50979042 372.55301493 332.86134247 376.11328125 335.34765625 C377.30877843 336.13649158 378.50638652 336.92214682 379.70703125 337.703125 C382.9443252 339.82156317 386.18042631 341.94181247 389.41610718 344.06271362 C390.81693713 344.98088983 392.21783625 345.89896053 393.61880493 346.81692505 C400.84826324 351.55428148 408.07115073 356.30161945 415.29364014 361.04959106 C428.55395773 369.7666111 441.81746817 378.47875387 455.08642578 387.18261719 C461.31151135 391.26613608 467.53558024 395.35117637 473.75611877 399.44161987 C476.74213649 401.40504243 479.72867077 403.36767845 482.71524048 405.33026123 C484.14581689 406.27066444 485.57613856 407.21145529 487.00619507 408.15264893 C488.98005089 409.4517034 490.95477199 410.74943232 492.9296875 412.046875 C493.81161018 412.62805588 493.81161018 412.62805588 494.71134949 413.22097778 C496.77368336 414.57447538 498.79141134 415.89570567 501 417 C501 368.16 501 319.32 501 269 C507.74868651 271.24956217 507.74868651 271.24956217 510.4453125 273.1015625 C511.04859375 273.51019531 511.651875 273.91882813 512.2734375 274.33984375 C512.88445313 274.76394531 513.49546875 275.18804687 514.125 275.625 C515.33577005 276.45076641 516.54671391 277.27627802 517.7578125 278.1015625 C518.36860366 278.54035768 518.97939481 278.97915285 519.60869479 279.43124485 C522.03601829 281.09434075 522.03601829 281.09434075 524.98854375 282.46669674 C529.80768196 285.04929035 533.3403892 286.99712887 535.10444784 292.35359383 C535.51830232 296.64879241 535.54440451 300.80230576 535.4430542 305.10961914 C535.44829046 306.76234308 535.45880372 308.41505728 535.47412419 310.06771851 C535.50092093 314.60015373 535.45302491 319.12917744 535.39278746 323.66117787 C535.34092017 328.55133236 535.35850535 333.44129757 535.36761475 338.33164978 C535.37390436 346.80123418 535.3362856 355.26970851 535.26876068 363.73901367 C535.17119642 375.98397578 535.13997966 388.22840163 535.12490478 400.4737103 C535.0986471 420.34101344 535.01880466 440.20772505 534.90527344 460.07470703 C534.79510946 479.3725285 534.71017636 498.67018925 534.65917969 517.96826172 C534.65445066 519.75282589 534.65445066 519.75282589 534.64962611 521.57344186 C534.63396555 527.54192021 534.61880108 533.51039969 534.60388327 539.47887993 C534.47950092 588.98635055 534.2648552 638.49309832 534 688 C523.11 688 512.22 688 501 688 C501 611.77 501 535.54 501 457 C499.35 456.34 497.7 455.68 496 455 C493.5225327 453.43728985 491.10288727 451.84103363 488.6875 450.1875 C487.06989423 449.09504436 485.45132543 448.00401393 483.83203125 446.9140625 C482.46038818 445.99028809 482.46038818 445.99028809 481.06103516 445.04785156 C475.02668534 441.01083399 468.94785596 437.04124892 462.875 433.0625 C461.48914245 432.1539418 460.10331924 431.24533123 458.7175293 430.33666992 C455.88706151 428.48084502 453.05638965 426.62533196 450.22558594 424.77001953 C444.143974 420.7837749 438.06499191 416.79352377 431.98590088 412.80343628 C428.65738356 410.6187803 425.32868214 408.43440484 422 406.25 C420.66666579 405.37500133 419.33333246 404.50000133 418 403.625 C417.34 403.191875 416.68 402.75875 416 402.3125 C410.00000019 398.37500012 410.00000019 398.37500012 408.00039673 397.0627594 C406.66574213 396.18689296 405.33108637 395.3110283 403.99642944 394.43516541 C400.68330189 392.26093649 397.37019399 390.08667763 394.05712891 387.91235352 C387.81625197 383.81658817 381.57516919 379.72113741 375.33343506 375.62667847 C372.38937167 373.6954039 369.44541419 371.76396793 366.50146484 369.83251953 C365.09982508 368.91300523 363.69813359 367.99356976 362.29638672 367.07421875 C360.35110534 365.79837762 358.40600345 364.52226327 356.4609375 363.24609375 C355.89361908 362.87411362 355.32630066 362.50213348 354.74179077 362.11888123 C351.15012563 359.76188248 347.57467171 357.38311447 344 355 C343.67 464.89 343.34 574.78 343 688 C332.11 688 321.22 688 310 688 C310.03632538 683.0699704 310.07265076 678.1399408 310.1100769 673.06051636 C310.43311637 627.83077227 310.64671328 582.60155492 310.74125498 537.37073558 C310.75374995 531.44035166 310.76720363 525.50997028 310.78125 519.57958984 C310.78403021 518.39897874 310.78681043 517.21836764 310.78967489 516.00198044 C310.83695331 496.89576882 310.96185913 477.79081562 311.11555611 458.68519758 C311.27158222 439.07477964 311.34394961 419.46533358 311.33897984 399.85428917 C311.33854134 387.75625884 311.40301365 375.6621753 311.55106683 363.56503595 C311.64639572 355.26463982 311.66031114 346.96656759 311.61086051 338.66578196 C311.58472111 333.8776924 311.59383812 329.09668058 311.69989586 324.30953979 C312.86712465 305.87465769 312.86712465 305.87465769 306.87632227 289.15466547 C301.79058996 284.52905625 296.16925423 281.75042596 289.82448697 279.23520494 C285.20962594 277.21703343 281.21839941 274.3423485 277.125 271.4375 C276.18132568 270.80585938 275.23765137 270.17421875 274.26538086 269.5234375 C273.48557861 269.00007813 272.70577637 268.47671875 271.90234375 267.9375 C264.85958734 263.22688709 257.77360077 258.58252233 250.6875 253.9375 C250.0089093 253.49260223 249.3303186 253.04770447 248.63116455 252.58932495 C245.14681643 250.30503617 241.66212387 248.02127361 238.17724609 245.73779297 C232.10968164 241.76162807 226.04526726 237.7806645 219.98068237 233.79995728 C218.01012697 232.50664651 216.03939448 231.21360607 214.06860352 229.9206543 C207.78735797 225.79961802 201.50724882 221.67687339 195.23028564 217.54931641 C192.24779721 215.58823685 189.26478906 213.62794864 186.28173828 211.66772461 C184.85244053 210.72818057 183.42340083 209.78824386 181.99462891 208.84790039 C180.0204977 207.54866393 178.04550196 206.25075186 176.0703125 204.953125 C175.48234894 204.56566101 174.89438538 204.17819702 174.28860474 203.7789917 C172.22628595 202.42550461 170.2085722 201.1042861 168 200 C167.505 441.56 167.505 441.56 167 688 C156.11 688 145.22 688 134 688 C134.02250006 685.38487865 134.04500011 682.76975731 134.06818199 680.07538986 C134.45872711 634.28252382 134.8106196 588.48960912 134.98428345 542.69537354 C134.98701542 541.97775879 134.9897474 541.26014405 134.99256216 540.52078341 C135.05172125 524.92259817 135.10419143 509.32439713 135.14977761 493.72616647 C135.17217589 486.07606666 135.19605122 478.42597177 135.22070312 470.77587891 C135.22313105 470.01462947 135.22555898 469.25338004 135.22806049 468.46906244 C135.30735672 443.82348778 135.48405694 419.1797895 135.71163527 394.53517538 C135.9451156 369.19542879 136.07960094 343.85701823 136.0907136 318.5161525 C136.09233138 314.93161746 136.09507297 311.3470841 136.0984993 307.76255035 C136.09945861 306.7043882 136.09945861 306.7043882 136.1004373 305.62484903 C136.11358966 294.29820928 136.23013169 282.97491408 136.38600367 271.64943805 C136.5407427 260.24421563 136.58256614 248.84376192 136.51887153 237.43726423 C136.48763795 231.26190827 136.50428328 225.09679942 136.65353966 218.92294502 C138.3776344 194.74104961 138.3776344 194.74104961 130.0345006 173.08771229 C123.32468719 166.45241692 115.07781508 162.25497444 106.48995328 158.56593752 C101.93612303 156.52263978 97.98724802 153.91781562 93.9375 151.03125 C92.74460533 150.24303903 91.54810474 149.46025175 90.34765625 148.68359375 C87.42550076 146.77754367 84.50446551 144.86980217 81.58422852 142.96081543 C80.01231851 141.93349444 78.43978282 140.90713099 76.8671875 139.88085938 C74 138 74 138 70.9453125 135.63476562 C68.16253338 133.66445671 68.16253338 133.66445671 65.41674805 134.57275391 C64.61922119 135.04374512 63.82169434 135.51473633 63 136 C62.24050049 136.43618652 61.48100098 136.87237305 60.69848633 137.32177734 C59.91755615 137.8214502 59.13662598 138.32112305 58.33203125 138.8359375 C57.00643188 139.68091797 57.00643188 139.68091797 55.65405273 140.54296875 C54.71634033 141.14753906 53.77862793 141.75210938 52.8125 142.375 C51.83289307 143.00277344 50.85328613 143.63054687 49.84399414 144.27734375 C39.88052587 150.68191065 30.03023772 157.25153854 20.21533203 163.88085938 C17.31262293 165.84082893 14.40635835 167.79544742 11.5 169.75 C10.58468506 170.37132812 9.66937012 170.99265625 8.72631836 171.6328125 C7.8781958 172.20257813 7.03007324 172.77234375 6.15625 173.359375 C5.40150391 173.86952148 4.64675781 174.37966797 3.86914062 174.90527344 C2 176 2 176 0 176 C0 344.96 0 513.92 0 688 C-10.89 688 -21.78 688 -33 688 C-33 526.63 -33 365.26 -33 199 C-45.45577073 206.92639956 -57.84731201 214.84075848 -70.09765625 223.0625 C-77.14041266 227.77311291 -84.22639923 232.41747767 -91.3125 237.0625 C-91.9910907 237.50739777 -92.6696814 237.95229553 -93.36883545 238.41067505 C-96.85318357 240.69496383 -100.33787613 242.97872639 -103.82275391 245.26220703 C-109.89021224 249.23830238 -115.95454946 253.21915281 -122.01904297 257.19976807 C-125.30814757 259.35862299 -128.59743473 261.51719971 -131.88671875 263.67578125 C-132.8678212 264.31963776 -132.8678212 264.31963776 -133.8687439 264.97650146 C-138.16032821 267.79285163 -142.45208223 270.60894302 -146.743927 273.42489624 C-149.71709757 275.3756569 -152.69021591 277.32649713 -155.66333008 279.27734375 C-157.0855044 280.21048914 -158.50770453 281.14359521 -159.92993164 282.07666016 C-161.89736279 283.36741458 -163.86470634 284.65830241 -165.83203125 285.94921875 C-166.41483353 286.33152145 -166.9976358 286.71382416 -167.59809875 287.10771179 C-170.07089545 288.73047378 -172.53901231 290.35934154 -175 292 C-175.46006756 294.92032736 -175.46006756 294.92032736 -175.38476086 298.43057442 C-175.38991076 299.10147808 -175.39506067 299.77238175 -175.40036663 300.46361583 C-175.41408964 302.73399311 -175.40627231 305.00380118 -175.39872742 307.27420044 C-175.40416141 308.90935225 -175.41091067 310.54450013 -175.41886932 312.1796416 C-175.43698546 316.69019146 -175.43632652 321.20057746 -175.43273985 325.71115518 C-175.43211847 330.56872517 -175.44871282 335.42623898 -175.46325684 340.28378296 C-175.4860972 348.70554133 -175.49793729 357.12725818 -175.50238609 365.54904556 C-175.50883415 377.7256483 -175.53174775 389.90217582 -175.55872939 402.07874833 C-175.60205186 421.832599 -175.63198739 441.58644652 -175.65356445 461.34033203 C-175.67455781 480.5337072 -175.70181851 499.72705652 -175.73754883 518.92041016 C-175.73974765 520.10273496 -175.74194648 521.28505976 -175.74421193 522.50321259 C-175.75528118 528.43436373 -175.76647406 534.36551463 -175.77772844 540.29666543 C-175.87099081 589.53108878 -175.94173086 638.76552385 -176 688 C-186.89 688 -197.78 688 -209 688 C-209.33 578.11 -209.66 468.22 -210 355 C-230.20207189 367.92315236 -230.20207189 367.92315236 -250.203125 381.1328125 C-257.21060105 385.82014542 -264.26180227 390.44056867 -271.3125 395.0625 C-272.33079391 395.73011856 -272.33079391 395.73011856 -273.36965942 396.41122437 C-276.85373227 398.69533097 -280.33815262 400.9789067 -283.82275391 403.26220703 C-290.55084929 407.67122763 -297.27519894 412.08595725 -304 416.5 C-306.64449135 418.23573788 -309.2890221 419.97141571 -311.93359375 421.70703125 C-312.59013947 422.13792053 -313.24668518 422.56880981 -313.92312622 423.01275635 C-318.09287134 425.74911384 -322.26341289 428.48425361 -326.43447876 431.21859741 C-329.2912264 433.0914048 -332.1476976 434.96463357 -335.00415039 436.83789062 C-336.34418296 437.71651712 -337.68434553 438.59494539 -339.0246582 439.47314453 C-339.9686145 440.09165283 -339.9686145 440.09165283 -340.93164062 440.72265625 C-341.47526245 441.07875977 -342.01888428 441.43486328 -342.57897949 441.80175781 C-343.79086756 442.59731481 -344.99816429 443.40012729 -346.19313091 444.22088206 C-349.35749219 446.36539669 -352.46144726 448.27377181 -355.93493748 449.87720299 C-360.827163 452.29914564 -365.76138843 454.86335543 -367.85612178 460.16803217 C-369.2686644 466.78065288 -368.9406018 473.52723547 -368.79467773 480.24853516 C-368.80031382 482.5160163 -368.81255143 484.78348918 -368.83087158 487.05090332 C-368.86183672 493.18799256 -368.80074277 499.32108748 -368.72283816 505.45763063 C-368.65708467 511.87714402 -368.67636259 518.29639485 -368.6865387 524.71615601 C-368.69219264 535.48514394 -368.64566928 546.25244256 -368.55883789 557.02099609 C-368.46958003 568.10830756 -368.41200427 579.19504396 -368.39672852 590.28271484 C-368.39529773 591.30928747 -368.39529773 591.30928747 -368.39383804 592.35659893 C-368.38924686 595.79022848 -368.38527529 599.22385841 -368.3816117 602.65748906 C-368.35045777 631.10571683 -368.20675663 659.55255197 -368 688 C-378.89 688 -389.78 688 -401 688 C-401.49753636 637.40852103 -401.89131319 586.81762998 -402.12343725 536.22418877 C-402.15095218 530.24873893 -402.17942733 524.27329403 -402.20849609 518.29785156 C-402.21426692 517.10826861 -402.22003775 515.91868567 -402.22598346 514.69305475 C-402.32166584 495.4411948 -402.49509646 476.19078282 -402.69736151 456.93978135 C-402.90323347 437.18040731 -403.02532081 417.42179054 -403.06994689 397.66138804 C-403.10010868 385.47105768 -403.19528175 373.28481969 -403.37416227 361.09574963 C-403.49063112 352.73247148 -403.52556691 344.37130247 -403.4970303 336.00727259 C-403.48295832 331.18259974 -403.50419806 326.36506221 -403.62252045 321.54166603 C-404.27908094 293.40353446 -404.27908094 293.40353446 -398.86601305 286.13423204 C-393.76790729 281.49223591 -388.13453657 278.68560746 -381.75711942 276.19182706 C-378.09059401 274.60688875 -374.99196829 272.46777953 -371.76305616 270.13719404 C-370 269 -370 269 -368 269 C-367.67 317.84 -367.34 366.68 -367 417 C-346.17840363 403.38882487 -346.17840363 403.38882487 -325.375 389.75 C-324.03297484 388.86895372 -322.69093328 387.98793241 -321.34887695 387.10693359 C-319.27829431 385.74767714 -317.20772647 384.38839819 -315.13722229 383.02902222 C-310.45269238 379.9534301 -305.767556 376.87876379 -301.08203125 373.8046875 C-285.92694132 363.86150659 -270.7754885 353.91281786 -255.62963867 343.95556641 C-254.658106 343.32588707 -254.658106 343.32588707 -253.66694641 342.68348694 C-252.29476357 341.76919474 -250.94551594 340.81976077 -249.61833191 339.84129333 C-245.22413097 336.70250059 -241.11434272 334.61588476 -236.00657463 332.96916676 C-226.34348108 329.74554829 -217.18347965 325.40830843 -211.32365417 316.75267792 C-206.10064832 305.89088852 -207.28422017 291.63164831 -207.4296875 279.84765625 C-207.43927836 279.04115049 -207.44886923 278.23464473 -207.45875072 277.4036994 C-207.61545705 266.35996673 -208.08195025 255.33405225 -208.621521 244.30334473 C-209.25286335 231.38993093 -209.76494986 218.47526151 -210.03752911 205.54907221 C-210.12937785 201.50292911 -210.27148497 197.47153049 -210.53316879 193.4325428 C-212.11316785 169.00025258 -212.11316785 169.00025258 -206.92099762 162.32859421 C-201.77728875 157.79905286 -196.05740069 154.91560052 -189.77734756 152.27229118 C-186.14165402 150.60679533 -183.00003062 148.454076 -179.76029778 146.12622166 C-178 145 -178 145 -176 145 C-175.67 179.98 -175.34 214.96 -175 251 C-164.29187469 244.07121304 -153.59520472 237.13024709 -142.9375 230.125 C-141.5566806 229.21803809 -140.17582016 228.31113867 -138.79492188 227.40429688 C-135.94369106 225.53181379 -133.09263181 223.65906993 -130.24169922 221.78613281 C-124.15707548 217.78910236 -118.07025176 213.79542523 -111.98352051 209.80160522 C-109.99378316 208.49592045 -108.00419356 207.19001085 -106.01464844 205.8840332 C-99.96873318 201.91553216 -93.92211189 197.94812626 -87.87213135 193.98582458 C-85.14980581 192.20282022 -82.42789837 190.41917841 -79.70611572 188.63534546 C-78.36863929 187.75886629 -77.03103507 186.88258208 -75.69329834 186.00650024 C-68.45743255 181.2666879 -61.23896043 176.50324692 -54.05859375 171.6796875 C-53.10901039 171.04262123 -53.10901039 171.04262123 -52.14024353 170.39268494 C-49.13841442 168.37827941 -46.13993136 166.35922123 -43.1472168 164.33129883 C-42.10090088 163.6277124 -41.05458496 162.92412598 -39.9765625 162.19921875 C-39.05955566 161.57877686 -38.14254883 160.95833496 -37.19775391 160.3190918 C-35 159 -35 159 -33 159 C-33.01382689 157.93512564 -33.01382689 157.93512564 -33.02793312 156.84873867 C-33.2489126 139.56361867 -33.41432046 122.27885803 -33.51812172 104.99263668 C-33.56965591 96.63300239 -33.63989324 88.27431173 -33.75439453 79.9152832 C-33.85416403 72.6282491 -33.91860398 65.34189836 -33.94088495 58.05420023 C-33.9539077 54.19605396 -33.98443523 50.33986235 -34.05730057 46.48234367 C-34.12539108 42.84802271 -34.14607839 39.21645266 -34.13107681 35.58155441 C-34.13512287 33.61803245 -34.1888377 31.65480782 -34.24420166 29.69206238 C-34.14529751 21.20804286 -34.14529751 21.20804286 -30.80021191 17.67969608 C-28.27052771 15.8894512 -25.75397306 14.41357271 -23 13 C-22.03521729 12.34394775 -21.07043457 11.68789551 -20.07641602 11.01196289 C-17.57640001 9.35500915 -15.07102779 7.7065389 -12.5625 6.0625 C-11.67884766 5.47404297 -10.79519531 4.88558594 -9.88476562 4.27929688 C-9.03720703 3.72435547 -8.18964844 3.16941406 -7.31640625 2.59765625 C-6.55787354 2.09758057 -5.79934082 1.59750488 -5.01782227 1.08227539 C-3 0 -3 0 0 0 Z " fill="#FFFFFF" transform="translate(473,20)"/>
<path d="M0 0 C18.48 0 36.96 0 56 0 C63.23747 21.18467782 70.47166339 42.37044408 77.6875 63.5625 C78.01077271 64.51178375 78.33404541 65.4610675 78.66711426 66.43911743 C82.60157179 77.99400946 86.52766441 89.55171082 90.44381142 101.11282158 C91.09541701 103.03635853 91.7471696 104.95984562 92.39897156 106.88331604 C92.83084273 108.15780583 93.26271224 109.43229619 93.69458008 110.70678711 C93.90740851 111.33485669 94.12023695 111.96292627 94.33951473 112.61002827 C95.79629397 116.90956691 97.25120139 121.20973656 98.70581055 125.51000977 C99.47569404 127.78273336 100.24562966 130.0554393 101.015625 132.328125 C101.35976944 133.34702316 101.70391388 134.36592133 102.05848694 135.41569519 C104.02725203 141.2217311 106.08385311 146.98113657 108.26507568 152.71112061 C109 155 109 155 109 158 C112.3 158 115.6 158 119 158 C119.26538574 156.71867188 119.53077148 155.43734375 119.80419922 154.1171875 C120.9424408 149.00798543 122.48415469 144.08931101 124.1328125 139.125 C124.4414624 138.18383331 124.7501123 137.24266663 125.06811523 136.27297974 C126.08315856 133.18068314 127.10411803 130.09037342 128.125 127 C128.84404236 124.81248679 129.56262146 122.62482125 130.28076172 120.43701172 C131.77391263 115.88937858 133.26905518 111.34240755 134.765625 106.79589844 C137.90345312 97.25846307 141.0178438 87.7133911 144.13192749 78.16818237 C145.12350985 75.12956643 146.11594905 72.09123161 147.10864258 69.05297852 C150.41897049 58.91983578 153.72153011 48.78423203 157.01171875 38.64453125 C157.65801834 36.65412696 158.30433956 34.6637297 158.95068359 32.67333984 C160.16004165 28.94904981 161.36707348 25.22401714 162.57275391 21.49853516 C163.1174234 19.82060893 163.66217771 18.14271022 164.20703125 16.46484375 C164.44693283 15.72128128 164.68683441 14.97771881 164.93400574 14.21162415 C165.16308121 13.50748886 165.39215668 12.80335358 165.62817383 12.07788086 C165.82196121 11.47954941 166.0157486 10.88121796 166.21540833 10.26475525 C167.40916183 6.81893802 168.71954452 3.41454794 170 0 C188.48 0 206.96 0 226 0 C226 60.06 226 120.12 226 182 C217.09 182 208.18 182 199 182 C199 129.86 199 77.72 199 24 C196.03 24 193.06 24 190 24 C189.73640434 25.00075562 189.73640434 25.00075562 189.46748352 26.02172852 C187.67212447 32.73392107 185.65979239 39.34101642 183.48046875 45.9375 C183.14565994 46.95855835 182.81085114 47.9796167 182.46589661 49.03161621 C181.37554484 52.35521991 180.28148966 55.67759218 179.1875 59 C178.41830273 61.34299489 177.64942689 63.68609533 176.88085938 66.02929688 C175.71024127 69.59817165 174.5394433 73.16698608 173.36764526 76.73547363 C170.17191054 86.46798055 166.99604013 96.2068435 163.82931519 105.94882202 C155.58519218 131.30977698 147.29009946 156.65404017 139 182 C122.5 182 106 182 89 182 C85.225625 170.6459375 85.225625 170.6459375 81.375 159.0625 C75.81502659 142.36561408 70.21765527 125.68313406 64.51062012 109.03594971 C58.33434244 91.01926651 52.22791233 72.97913408 46.125 54.9375 C45.61699696 53.43585113 45.10899119 51.93420317 44.60098267 50.43255615 C41.73320056 41.95530379 38.86620132 33.47778698 36 25 C33.03 24.67 30.06 24.34 27 24 C27 76.14 27 128.28 27 182 C18.09 182 9.18 182 0 182 C0 121.94 0 61.88 0 0 Z " fill="#FFFFFF" transform="translate(622,834)"/>
<path d="M0 0 C113.48897796 0 113.48897796 0 141 24 C141.61359375 24.52980469 142.2271875 25.05960938 142.859375 25.60546875 C158.81113989 40.42304852 168.19381083 63.44320276 169 85 C169.03996094 85.90621094 169.07992187 86.81242188 169.12109375 87.74609375 C169.71454192 114.0323566 160.94012414 137.02437086 143 156 C127.62815713 172.03418439 106.59409797 179.30073775 85 182 C56.95 182 28.9 182 0 182 C0 121.94 0 61.88 0 0 Z M27 24 C27 68.22 27 112.44 27 158 C78.66643302 160.52793991 78.66643302 160.52793991 121.68359375 138.34375 C134.75529007 125.11775035 140.9792098 108.52406458 141 90 C139.92536735 70.55891842 133.29772782 54.20586914 119.0859375 40.578125 C93.88455388 18.62274484 57.7907033 24 27 24 Z " fill="#FFFFFF" transform="translate(20,834)"/>
<path d="M0 0 C17.52745987 14.84764162 29.45500404 36.42633585 31.8359375 59.40234375 C33.37953326 89.33562245 27.93142611 114.83667109 7.5234375 137.65234375 C-7.00907441 153.2657863 -28.75617551 164.34223428 -50.23754883 165.5793457 C-79.53315593 166.13027081 -103.98508599 161.88936523 -126.234375 141.66796875 C-145.45742216 123.12584697 -154.82593968 98.71472753 -155.4765625 72.15234375 C-154.98426287 44.2071002 -144.16234779 20.60738212 -124.21875 1.078125 C-90.11070773 -29.90987012 -34.80939848 -28.438276 0 0 Z M-109.1640625 24.40234375 C-109.71449219 24.91925781 -110.26492188 25.43617188 -110.83203125 25.96875 C-123.55437518 39.03217554 -127.35783914 58.8676192 -127.1640625 76.40234375 C-126.08221235 95.06917632 -118.59954603 111.47465802 -105.1640625 124.40234375 C-90.53316452 136.77899967 -73.29989171 141.97367731 -54.1640625 140.40234375 C-36.86092757 137.95754155 -22.20805197 131.03328314 -10.7890625 117.65234375 C1.73192041 100.69354411 6.22520678 81.00214143 3.5546875 60.21289062 C0.59690721 42.34856987 -8.48529161 26.34477403 -23.1015625 15.52734375 C-50.8516293 -2.51235753 -85.93616527 0.91966154 -109.1640625 24.40234375 Z " fill="#FFFFFF" transform="translate(1030.1640625,852.59765625)"/>
<path d="M0 0 C26.88118715 -0.64002827 51.4138228 8.90964597 70.953125 27.3671875 C88.25063569 45.3854278 96.41622167 68.41508665 96.515625 93.0546875 C96.5465625 94.91963867 96.5465625 94.91963867 96.578125 96.82226562 C96.67539518 120.22790332 87.8348523 141.75581893 72.265625 159.1171875 C71.71390625 159.75140625 71.1621875 160.385625 70.59375 161.0390625 C56.88454313 175.83414714 34.34710947 186.09775416 14.29980469 187.29418945 C-15.59000689 187.8827008 -39.82432836 183.61791313 -62.43359375 162.37890625 C-63.19285156 161.63253906 -63.95210938 160.88617187 -64.734375 160.1171875 C-65.42144531 159.44300781 -66.10851562 158.76882813 -66.81640625 158.07421875 C-79.31904818 144.93041569 -87.34067284 127.05441019 -89.734375 109.1171875 C-89.84394531 108.30121094 -89.95351563 107.48523438 -90.06640625 106.64453125 C-92.8457873 82.66773736 -87.50121199 57.87918265 -73.53515625 37.984375 C-71.35972898 35.25844694 -69.1069884 32.67262214 -66.734375 30.1171875 C-66.0021875 29.31667969 -65.27 28.51617188 -64.515625 27.69140625 C-47.64305762 10.01679781 -24.14120008 1.03462286 0 0 Z M-46.6953125 48.26953125 C-60.60057024 65.05906735 -63.46559216 85.03051667 -61.734375 106.1171875 C-59.46574451 123.1213151 -50.2840612 138.19709685 -37.34765625 149.234375 C-22.39072901 160.0105169 -4.33972512 164.13117172 13.86328125 161.62109375 C30.86676807 158.28818437 45.99400206 150.4760604 56.265625 136.1171875 C67.74767051 118.07095788 71.55770796 97.56043636 67.13183594 76.49072266 C63.19653807 60.47961515 53.84933787 44.81541764 39.51367188 36.04541016 C10.4290262 19.43934975 -23.70231371 23.03219593 -46.6953125 48.26953125 Z " fill="#FFFFFF" transform="translate(497.734375,830.8828125)"/>
<path d="M0 0 C8.91 0 17.82 0 27 0 C27.01458252 3.17850586 27.02916504 6.35701172 27.04418945 9.63183594 C27.09465663 20.16513937 27.161273 30.69829686 27.23571491 41.23145676 C27.28033225 47.61408969 27.31960744 53.99666006 27.34643555 60.37939453 C27.37255458 66.54572657 27.41301783 72.71181674 27.46318626 78.87799835 C27.47979689 81.22372669 27.49134713 83.5694968 27.49761391 85.91527557 C27.55880742 106.72637712 29.0985648 123.75312627 44.30078125 139.5234375 C55.75515817 150.03295264 69.75401191 154.42213196 85.1015625 154.27734375 C100.81843934 153.15920923 113.34484335 146.3714697 124 135 C131.04357425 125.9093449 136.06332732 114.94311863 136.15821838 103.29862976 C136.1680072 102.3830278 136.17779602 101.46742584 136.18788147 100.52407837 C136.19363693 99.53217499 136.1993924 98.54027161 136.20532227 97.51831055 C136.21522186 96.46419479 136.22512146 95.41007904 136.23532104 94.32402039 C136.2668711 90.84494257 136.29166788 87.36585111 136.31640625 83.88671875 C136.33698138 81.47247465 136.357978 79.05823411 136.37937927 76.64399719 C136.43454219 70.29335412 136.483977 63.94267884 136.53222656 57.59197998 C136.58248376 51.110119 136.63814781 44.62830471 136.69335938 38.14648438 C136.80087029 25.43102801 136.90183128 12.71553193 137 0 C145.91 0 154.82 0 164 0 C164.06800445 13.95276863 164.12294766 27.90542567 164.15543652 41.8583231 C164.17103612 48.33847313 164.19216949 54.81850305 164.22631836 61.29858398 C164.25911607 67.56206873 164.27689583 73.82543856 164.28463173 80.08900261 C164.29013878 82.46858464 164.30089182 84.84816098 164.31719017 87.22769356 C164.49905679 114.90172357 160.09214751 137.68920932 140.46484375 158.625 C123.36815358 175.09851445 101.83187388 182.58620325 78.33203125 182.21484375 C66.91301043 181.80105524 56.27053389 179.02019094 46 174 C45.10023438 173.58105469 44.20046875 173.16210938 43.2734375 172.73046875 C24.14307754 163.16528877 11.51228633 146.69085819 4 127 C0.82557303 117.11298265 -0.15119675 107.60909618 -0.11352539 97.29125977 C-0.11367142 96.23685196 -0.11381744 95.18244415 -0.1139679 94.09608459 C-0.11327394 90.6278372 -0.1055058 87.15964421 -0.09765625 83.69140625 C-0.09579023 81.28002451 -0.0943672 78.86864239 -0.09336853 76.45726013 C-0.08955783 70.12304633 -0.07973991 63.78885559 -0.06866455 57.45465088 C-0.05841931 50.98604647 -0.05386424 44.51743832 -0.04882812 38.04882812 C-0.03811633 25.36587367 -0.02053125 12.68294237 0 0 Z " fill="#FFFFFF" transform="translate(216,834)"/>
</svg>
